# xmcd
#
# Track frame offsets:
#	150
#	19921
#	35675
#	54131
#	70636
#	88642
#	105147
#	122102
#	140108
#	157514
#	173870
#	199076
#
# Disc length: 2864 seconds
#
# Revision: 0
# Processed by: cddbd v1.5PL3 Copyright (c) Steve Scherf et al.
# Submitted via: dBpowerAMP V4.0
#
DISCID=920b2e0c
DTITLE=SheDaisy - Sweet Right Here
DYEAR=2004
DGENRE=Country
TTITLE0=Passanger Seat
TTITLE1=Come Home Soon
TTITLE2=Don't Worry Bout A Thing
TTITLE3=5 4 3 2 run
TTITLE4=I Dare You
TTITLE5=Without A Sound
TTITLE6=He's A Hero
TTITLE7=360 Of You
TTITLE8=Borrowed Home
TTITLE9=A Womans Work
TTITLE10=Good Together (Bucket and Chicken)
TTITLE11=Love Goes On
EXTD=
EXTT0=
EXTT1=
EXTT2=
EXTT3=
EXTT4=
EXTT5=
EXTT6=
EXTT7=
EXTT8=
EXTT9=
EXTT10=
EXTT11=
PLAYORDER=
